<svg width="32" height="32" viewBox="0 0 32 32" fill="none" xmlns="http://www.w3.org/2000/svg">
<path d="M13.76 24.9217C14.6368 28.227 17.7824 30.7504 19.3708 30.6449C19.4268 30.6412 25.3964 29.5073 28.6644 23.9431C31.2076 19.6131 30.3416 15.4332 26.8828 15.3427C25.6384 15.4352 12.0892 18.6255 13.76 24.9217ZM26.5624 3.6918L26.5588 3.68854L26.5636 3.68569C24.385 1.79747 21.7272 0.574825 18.8965 0.158586C16.0658 -0.257652 13.1772 0.149455 10.5636 1.33301C10.2333 1.47329 9.91151 1.63363 9.60001 1.81316C9.38721 1.92851 9.17401 2.04346 8.96721 2.169L9.01761 2.1849C8.40645 2.60942 7.86623 3.13128 7.41761 3.73052C3.05961 9.59632 17.6636 13.8598 25.4716 13.8725C29.0636 16.5015 30.072 6.47572 26.5624 3.6918Z" fill="#0E3CA5"/>
<path d="M11.4436 3.81082C9.43997 6.88333 2.75517 9.04851 1.65597 8.71142L1.64877 8.69593C1.69357 8.6034 1.73957 8.51129 1.78597 8.41958C2.92563 6.18271 4.5563 4.24389 6.55117 2.75391C6.96237 2.44658 7.38811 2.15936 7.82837 1.89224C8.50568 1.51171 9.26424 1.30625 10.0376 1.29388C13.0136 1.35176 11.4596 3.78637 11.4436 3.81082ZM9.79998 25.5262C9.94398 26.4918 9.79638 30.3054 9.60238 30.6269C9.43558 30.6371 9.08798 30.6587 8.08237 30.0832C4.86674 28.2138 2.38566 25.2673 1.0609 21.7446C-0.26387 18.222 -0.350557 14.3405 0.815571 10.76C0.868904 10.597 0.924904 10.4339 0.983571 10.2709C2.13837 11.8345 3.47317 13.2488 4.60797 14.8279C5.68797 16.3311 7.17477 18.7816 7.47717 19.3058C9.35718 22.5568 9.65478 24.5639 9.79718 25.5262M32 15.9133C32.0025 17.9633 31.6247 19.9953 30.8864 21.9022C29.002 23.9659 16.2956 18.886 16.1712 18.8297C14.4328 18.0553 9.14318 15.6912 8.66598 11.982C7.97958 6.64692 18.6036 2.92837 23.2724 2.7857C23.8324 2.79263 25.536 2.81261 26.5292 3.63474C28.2496 5.1638 29.6282 7.05106 30.5719 9.1692C31.5157 11.2873 32.0026 13.5871 32 15.9133ZM23.4 30.3746C22.0148 31.0333 20.49 30.5536 20.886 29.1791C21.646 26.5395 28.2888 23.8334 29.7556 23.6867C29.9364 23.6684 30.0132 23.7939 29.9332 23.9374C28.4046 26.6758 26.1372 28.9099 23.4 30.3746Z" fill="#5493F7"/>
</svg>
